<svg 
 xmlns="http://www.w3.org/2000/svg"
 xmlns:xlink="http://www.w3.org/1999/xlink"
 width="41px" height="41px">
<path fill-rule="evenodd"  opacity="0.102" fill="rgb(255, 255, 255)"
 d="M20.500,40.999 C9.163,40.999 -0.000,31.836 -0.000,20.499 C-0.000,9.163 9.163,-0.000 20.500,-0.000 C31.836,-0.000 40.1000,9.163 40.1000,20.499 C40.1000,31.836 31.836,40.999 20.500,40.999 Z"/>
<path fill-rule="evenodd"  fill="rgb(255, 255, 255)"
 d="M29.1000,20.441 C29.978,18.619 29.438,16.842 28.446,15.318 C27.453,13.795 26.049,12.589 24.398,11.841 C22.746,11.094 20.917,10.837 19.126,11.100 C17.334,11.364 15.655,12.137 14.286,13.328 C12.916,14.520 11.914,16.081 11.396,17.826 C10.879,19.572 10.868,21.430 11.365,23.182 C11.862,24.934 12.846,26.506 14.201,27.714 C15.557,28.922 17.227,29.715 19.015,29.1000 L19.015,23.225 L16.640,23.225 L16.640,20.441 L19.015,20.441 L19.015,18.326 C18.960,17.835 19.013,17.336 19.170,16.868 C19.328,16.399 19.585,15.970 19.925,15.612 C20.265,15.254 20.678,14.976 21.137,14.797 C21.595,14.618 22.087,14.541 22.578,14.574 C23.290,14.584 24.001,14.648 24.703,14.766 L24.703,17.155 L23.516,17.155 C23.311,17.129 23.103,17.150 22.907,17.215 C22.712,17.281 22.533,17.390 22.385,17.535 C22.237,17.680 22.123,17.856 22.051,18.050 C21.980,18.245 21.953,18.454 21.972,18.661 L21.972,20.465 L24.608,20.465 L24.181,23.249 L21.984,23.249 L21.984,29.940 C24.228,29.583 26.271,28.428 27.742,26.685 C29.212,24.942 30.013,22.727 29.1000,20.441 Z"/>
</svg>