<svg 
 xmlns="http://www.w3.org/2000/svg"
 xmlns:xlink="http://www.w3.org/1999/xlink"
 width="64px" height="39px">
<path fill-rule="evenodd"  fill="rgb(253, 79, 0)"
 d="M20.1000,38.340 L20.1000,0.660 L63.1000,0.660 L63.1000,38.340 L20.1000,38.340 ZM62.670,1.990 L22.330,1.990 L22.330,6.866 L62.670,6.866 L62.670,1.990 ZM62.670,8.196 L22.330,8.196 L22.330,37.010 L62.670,37.010 L62.670,8.196 Z"/>
<path fill-rule="evenodd"  fill="rgb(253, 79, 0)"
 d="M0.325,3.762 L2.098,3.762 L2.098,5.092 L0.325,5.092 L0.325,3.762 Z"/>
<path fill-rule="evenodd"  fill="rgb(253, 79, 0)"
 d="M2.985,3.762 L4.758,3.762 L4.758,5.092 L2.985,5.092 L2.985,3.762 Z"/>
<path fill-rule="evenodd"  fill="rgb(253, 79, 0)"
 d="M58.902,3.762 L60.675,3.762 L60.675,5.092 L58.902,5.092 L58.902,3.762 Z"/>
<path fill-rule="evenodd"  fill="rgb(253, 79, 0)"
 d="M24.103,35.237 L24.103,9.969 L60.897,9.969 L60.897,35.237 L24.103,35.237 ZM59.567,11.299 L25.433,11.299 L25.433,29.030 L37.402,29.030 L37.402,13.515 L49.814,13.515 L49.814,23.268 L38.732,23.268 L38.732,29.030 L59.567,29.030 L59.567,29.030 L59.567,11.299 ZM38.732,14.845 L38.732,21.938 L48.484,21.938 L48.484,14.845 L38.732,14.845 ZM59.567,30.360 L25.433,30.360 L25.433,33.906 L59.567,33.906 L59.567,33.906 L59.567,30.360 Z"/>
<path fill-rule="evenodd"  fill="rgb(253, 79, 0)"
 d="M43.387,16.618 L46.490,16.618 L46.490,17.948 L43.387,17.948 L43.387,16.618 Z"/>
<path fill-rule="evenodd"  fill="rgb(253, 79, 0)"
 d="M40.727,18.835 L46.490,18.835 L46.490,20.165 L40.727,20.165 L40.727,18.835 Z"/>
<path fill-rule="evenodd"  fill="rgb(253, 79, 0)"
 d="M2.985,13.072 L4.758,13.072 L4.758,14.401 L2.985,14.401 L2.985,13.072 Z"/>
<path fill-rule="evenodd"  fill="rgb(253, 79, 0)"
 d="M2.985,15.731 L4.758,15.731 L4.758,17.061 L2.985,17.061 L2.985,15.731 Z"/>
<path fill-rule="evenodd"  fill="rgb(253, 79, 0)"
 d="M5.644,13.072 L7.417,13.072 L7.417,14.401 L5.644,14.401 L5.644,13.072 Z"/>
<path fill-rule="evenodd"  fill="rgb(253, 79, 0)"
 d="M56.242,25.927 L58.015,25.927 L58.015,27.257 L56.242,27.257 L56.242,25.927 Z"/>
<path fill-rule="evenodd"  fill="rgb(253, 79, 0)"
 d="M56.242,23.268 L58.015,23.268 L58.015,24.598 L56.242,24.598 L56.242,23.268 Z"/>
</svg>