<svg 
 xmlns="http://www.w3.org/2000/svg"
 xmlns:xlink="http://www.w3.org/1999/xlink"
 width="50px" height="37px">
<path fill-rule="evenodd"  fill="rgb(253, 79, 0)"
 d="M44.658,32.071 C44.658,32.280 44.605,32.483 44.507,32.657 C44.409,32.830 44.269,32.965 44.105,33.045 C43.942,33.124 43.762,33.146 43.588,33.105 C43.415,33.064 43.256,32.964 43.130,32.816 C43.005,32.669 42.920,32.481 42.886,32.277 C42.851,32.073 42.869,31.861 42.936,31.668 C43.004,31.476 43.119,31.311 43.266,31.195 C43.413,31.080 43.586,31.018 43.763,31.018 C44.000,31.019 44.227,31.130 44.395,31.328 C44.562,31.525 44.657,31.792 44.658,32.071 Z"/>
<path fill-rule="evenodd"  fill="rgb(253, 79, 0)"
 d="M41.079,32.071 C41.078,32.278 41.025,32.480 40.927,32.652 C40.829,32.823 40.690,32.957 40.527,33.036 C40.365,33.115 40.186,33.135 40.014,33.094 C39.841,33.054 39.683,32.954 39.559,32.807 C39.435,32.661 39.350,32.475 39.315,32.272 C39.281,32.069 39.298,31.859 39.365,31.667 C39.432,31.476 39.545,31.312 39.691,31.197 C39.837,31.081 40.008,31.019 40.184,31.018 C40.302,31.018 40.418,31.044 40.527,31.098 C40.635,31.150 40.734,31.228 40.817,31.326 C40.900,31.424 40.966,31.540 41.011,31.668 C41.056,31.796 41.079,31.933 41.079,32.071 Z"/>
<path fill-rule="evenodd"  fill="rgb(253, 79, 0)"
 d="M48.456,34.974 C47.469,36.135 46.132,36.789 44.737,36.792 L5.263,36.792 C3.868,36.789 2.531,36.135 1.544,34.974 C0.558,33.812 0.002,32.237 -0.000,30.594 L-0.000,29.427 C-0.000,28.879 0.185,28.354 0.514,27.966 C0.843,27.579 1.289,27.361 1.754,27.361 L4.465,27.361 L4.465,3.098 C4.467,2.277 4.745,1.490 5.238,0.910 C5.731,0.329 6.399,0.002 7.096,-0.001 L42.903,-0.001 C43.601,0.002 44.269,0.329 44.762,0.910 C45.255,1.490 45.533,2.277 45.535,3.098 L45.535,27.361 L48.246,27.361 C48.711,27.361 49.157,27.579 49.486,27.966 C49.815,28.354 49.1000,28.879 49.1000,29.427 L49.1000,30.594 C49.997,32.237 49.442,33.812 48.456,34.974 ZM43.781,3.098 C43.781,2.824 43.688,2.562 43.524,2.368 C43.359,2.174 43.136,2.065 42.903,2.065 L7.096,2.065 C6.864,2.065 6.641,2.174 6.476,2.368 C6.312,2.562 6.219,2.824 6.219,3.098 L6.219,27.361 L43.781,27.361 L43.781,3.098 ZM19.272,29.427 L20.184,31.565 L29.816,31.565 L30.728,29.427 L19.272,29.427 ZM48.246,29.427 L32.693,29.427 L31.149,33.063 C31.075,33.235 30.963,33.379 30.823,33.480 C30.684,33.580 30.523,33.632 30.360,33.631 L19.640,33.631 C19.477,33.632 19.316,33.580 19.177,33.480 C19.037,33.379 18.924,33.235 18.851,33.063 L17.307,29.427 L1.754,29.427 L1.754,30.594 C1.755,31.690 2.126,32.740 2.783,33.514 C3.441,34.289 4.333,34.725 5.263,34.726 L44.737,34.726 C45.667,34.725 46.559,34.289 47.217,33.514 C47.874,32.740 48.244,31.690 48.246,30.594 L48.246,29.427 Z"/>
<path fill-rule="evenodd"  fill="rgb(253, 79, 0)"
 d="M35.445,14.395 C35.280,14.589 35.057,14.698 34.824,14.698 L34.140,14.698 L32.1000,22.362 C32.909,23.135 32.589,23.845 32.096,24.367 C31.603,24.889 30.969,25.188 30.307,25.213 L19.693,25.213 C19.030,25.188 18.397,24.889 17.904,24.367 C17.411,23.845 17.091,23.135 16.1000,22.362 L15.860,14.698 L15.175,14.698 C14.943,14.698 14.720,14.589 14.555,14.395 C14.391,14.201 14.298,13.939 14.298,13.665 C14.298,13.391 14.391,13.128 14.555,12.934 C14.720,12.741 14.943,12.632 15.175,12.632 L17.842,12.632 L22.088,5.143 C22.148,5.023 22.229,4.917 22.326,4.834 C22.422,4.752 22.532,4.693 22.648,4.662 C22.764,4.631 22.885,4.628 23.002,4.653 C23.120,4.679 23.231,4.732 23.330,4.811 C23.430,4.889 23.514,4.989 23.579,5.107 C23.644,5.225 23.688,5.357 23.708,5.496 C23.728,5.635 23.723,5.776 23.695,5.913 C23.667,6.049 23.616,6.178 23.544,6.290 L19.956,12.632 L30.044,12.632 L26.456,6.290 C26.384,6.178 26.333,6.049 26.305,5.913 C26.277,5.776 26.272,5.635 26.292,5.496 C26.312,5.357 26.356,5.225 26.421,5.107 C26.486,4.989 26.570,4.889 26.670,4.811 C26.769,4.732 26.880,4.679 26.998,4.653 C27.115,4.628 27.235,4.631 27.352,4.662 C27.468,4.693 27.578,4.752 27.674,4.834 C27.770,4.917 27.852,5.023 27.912,5.143 L32.158,12.632 L34.824,12.632 C35.057,12.632 35.280,12.741 35.445,12.934 C35.609,13.128 35.702,13.391 35.702,13.665 C35.702,13.939 35.609,14.201 35.445,14.395 ZM17.640,14.698 L18.728,22.011 C18.750,22.303 18.859,22.577 19.035,22.785 C19.212,22.993 19.444,23.121 19.693,23.147 L30.307,23.147 C30.555,23.121 30.788,22.993 30.965,22.785 C31.141,22.577 31.250,22.303 31.272,22.011 L32.360,14.698 L17.640,14.698 Z"/>
<path fill-rule="evenodd"  fill="rgb(253, 79, 0)"
 d="M24.1000,22.058 C25.233,22.058 25.456,21.949 25.620,21.756 C25.785,21.562 25.877,21.300 25.877,21.025 L25.877,16.818 C25.877,16.544 25.785,16.282 25.620,16.088 C25.456,15.894 25.233,15.785 24.1000,15.785 C24.767,15.785 24.544,15.894 24.380,16.088 C24.215,16.282 24.123,16.544 24.123,16.818 L24.123,21.025 C24.123,21.300 24.215,21.562 24.380,21.756 C24.544,21.949 24.767,22.058 24.1000,22.058 Z"/>
<path fill-rule="evenodd"  fill="rgb(253, 79, 0)"
 d="M21.426,22.058 C21.659,22.058 21.882,21.949 22.047,21.756 C22.211,21.562 22.303,21.300 22.303,21.025 L22.303,16.818 C22.303,16.544 22.211,16.282 22.047,16.088 C21.882,15.894 21.659,15.785 21.426,15.785 C21.194,15.785 20.970,15.894 20.806,16.088 C20.641,16.282 20.549,16.544 20.549,16.818 L20.549,21.025 C20.549,21.300 20.641,21.562 20.806,21.756 C20.970,21.949 21.194,22.058 21.426,22.058 Z"/>
<path fill-rule="evenodd"  fill="rgb(253, 79, 0)"
 d="M28.574,22.058 C28.806,22.058 29.029,21.949 29.194,21.756 C29.358,21.562 29.451,21.300 29.451,21.025 L29.451,16.818 C29.451,16.544 29.358,16.282 29.194,16.088 C29.029,15.894 28.806,15.785 28.574,15.785 C28.341,15.785 28.118,15.894 27.953,16.088 C27.789,16.282 27.696,16.544 27.696,16.818 L27.696,21.025 C27.696,21.300 27.789,21.562 27.953,21.756 C28.118,21.949 28.341,22.058 28.574,22.058 Z"/>
</svg>