<svg 
 xmlns="http://www.w3.org/2000/svg"
 xmlns:xlink="http://www.w3.org/1999/xlink"
 width="46px" height="48px">
<path fill-rule="evenodd"  fill="rgb(253, 79, 0)"
 d="M23.000,5.771 C23.803,5.771 24.457,5.118 24.457,4.315 L24.457,1.458 C24.457,0.654 23.803,-0.001 23.000,-0.001 C22.196,-0.001 21.543,0.654 21.543,1.458 L21.543,4.315 C21.543,5.118 22.196,5.771 23.000,5.771 Z"/>
<path fill-rule="evenodd"  fill="rgb(253, 79, 0)"
 d="M12.440,7.545 C12.707,7.991 13.190,8.269 13.703,8.269 C13.961,8.269 14.213,8.200 14.432,8.069 C14.768,7.875 15.009,7.563 15.109,7.188 C15.210,6.814 15.158,6.421 14.964,6.080 L13.533,3.605 C13.274,3.154 12.790,2.874 12.271,2.874 C12.015,2.874 11.763,2.942 11.540,3.071 C11.204,3.266 10.964,3.581 10.864,3.957 C10.765,4.334 10.817,4.726 11.011,5.061 L12.440,7.545 Z"/>
<path fill-rule="evenodd"  fill="rgb(253, 79, 0)"
 d="M3.691,13.451 L6.161,14.874 C6.382,15.005 6.635,15.074 6.892,15.074 C7.409,15.074 7.894,14.795 8.158,14.344 C8.558,13.652 8.319,12.759 7.623,12.352 L5.148,10.924 C4.927,10.796 4.675,10.729 4.420,10.729 C3.898,10.729 3.413,11.010 3.156,11.459 C2.757,12.147 2.995,13.039 3.691,13.451 Z"/>
<path fill-rule="evenodd"  fill="rgb(253, 79, 0)"
 d="M5.858,22.914 C5.858,22.110 5.204,21.456 4.401,21.456 L1.543,21.456 C0.740,21.456 0.086,22.110 0.086,22.914 C0.086,23.718 0.740,24.373 1.543,24.373 L4.401,24.373 C5.204,24.373 5.858,23.718 5.858,22.914 Z"/>
<path fill-rule="evenodd"  fill="rgb(253, 79, 0)"
 d="M6.897,30.756 C6.642,30.756 6.390,30.824 6.166,30.952 L3.692,32.382 C3.353,32.576 3.111,32.889 3.010,33.265 C2.909,33.640 2.961,34.031 3.153,34.364 C3.410,34.817 3.894,35.098 4.416,35.098 C4.672,35.098 4.924,35.032 5.147,34.904 L7.628,33.476 C8.320,33.067 8.557,32.173 8.158,31.484 C7.900,31.035 7.416,30.756 6.897,30.756 Z"/>
<path fill-rule="evenodd"  fill="rgb(253, 79, 0)"
 d="M42.310,32.383 L39.834,30.952 C39.613,30.824 39.362,30.756 39.107,30.756 C38.590,30.756 38.106,31.034 37.842,31.483 C37.443,32.173 37.680,33.067 38.377,33.478 L40.855,34.906 C41.076,35.032 41.326,35.098 41.579,35.098 C42.094,35.098 42.578,34.822 42.845,34.371 C43.039,34.032 43.091,33.640 42.990,33.265 C42.889,32.890 42.647,32.576 42.310,32.383 Z"/>
<path fill-rule="evenodd"  fill="rgb(253, 79, 0)"
 d="M44.456,21.456 L41.599,21.456 C40.796,21.456 40.142,22.110 40.142,22.914 C40.142,23.718 40.796,24.372 41.599,24.372 L44.456,24.372 C45.260,24.372 45.913,23.718 45.913,22.914 C45.913,22.110 45.260,21.456 44.456,21.456 Z"/>
<path fill-rule="evenodd"  fill="rgb(253, 79, 0)"
 d="M39.108,15.074 C39.365,15.074 39.618,15.005 39.833,14.877 L42.307,13.452 C42.646,13.259 42.888,12.945 42.989,12.568 C43.091,12.191 43.040,11.796 42.846,11.462 C42.587,11.009 42.103,10.729 41.582,10.729 C41.328,10.729 41.076,10.796 40.853,10.924 L38.372,12.355 C37.682,12.763 37.444,13.655 37.846,14.351 C38.113,14.797 38.596,15.074 39.108,15.074 Z"/>
<path fill-rule="evenodd"  fill="rgb(253, 79, 0)"
 d="M31.566,8.062 C31.787,8.194 32.039,8.263 32.297,8.263 C32.812,8.263 33.295,7.988 33.563,7.538 L34.988,5.062 C35.184,4.725 35.235,4.332 35.134,3.955 C35.033,3.578 34.791,3.263 34.456,3.072 C34.235,2.943 33.983,2.874 33.728,2.874 C33.209,2.874 32.726,3.154 32.467,3.604 L31.037,6.080 C30.842,6.416 30.790,6.808 30.891,7.183 C30.992,7.559 31.234,7.873 31.566,8.062 Z"/>
<path fill-rule="evenodd"  fill="rgb(253, 79, 0)"
 d="M34.410,33.505 L34.403,33.515 C33.658,34.610 33.205,35.306 33.205,35.740 C33.205,36.648 33.159,38.174 33.119,39.522 C33.085,40.635 33.053,41.686 33.053,42.189 C33.053,43.727 31.856,44.397 31.065,44.840 C30.860,44.955 30.667,45.063 30.489,45.180 C30.392,45.244 30.188,45.558 30.054,45.766 C29.512,46.601 28.606,47.1000 26.454,47.1000 L19.550,47.1000 C17.516,47.1000 16.658,46.596 16.145,45.757 C16.020,45.552 15.830,45.242 15.739,45.173 C15.560,45.053 15.362,44.942 15.152,44.824 C14.369,44.382 13.185,43.716 13.185,42.188 C13.185,41.740 13.106,40.719 13.023,39.637 C12.916,38.253 12.795,36.685 12.795,35.740 C12.795,35.305 12.346,34.615 11.606,33.532 C10.099,31.320 8.034,28.292 8.034,23.157 C8.034,15.157 14.748,8.649 22.1000,8.649 C31.252,8.649 37.965,15.157 37.966,23.157 C37.966,28.291 35.826,31.429 34.410,33.505 ZM22.1000,10.870 C15.972,10.870 10.255,16.382 10.255,23.157 C10.255,27.607 12.021,30.199 13.441,32.281 C14.355,33.620 15.015,34.588 15.015,35.741 C15.015,36.599 15.133,38.122 15.237,39.466 C15.328,40.641 15.406,41.655 15.406,42.189 C15.406,42.369 15.510,42.477 16.242,42.889 C16.468,43.016 16.725,43.160 16.977,43.330 C17.463,43.655 17.756,44.135 18.040,44.599 C18.553,45.437 18.833,45.779 19.550,45.779 L26.454,45.779 C27.357,45.779 27.670,45.360 28.190,44.558 C28.482,44.109 28.783,43.644 29.269,43.324 C29.513,43.164 29.761,43.025 29.979,42.903 C30.726,42.484 30.833,42.374 30.833,42.188 C30.833,41.653 30.863,40.634 30.899,39.455 C30.939,38.123 30.984,36.614 30.984,35.740 C30.984,34.589 31.683,33.563 32.568,32.265 L32.576,32.254 C33.988,30.183 35.745,27.606 35.745,23.157 C35.745,16.382 30.027,10.870 22.1000,10.870 Z"/>
<path fill-rule="evenodd"  fill="rgb(253, 79, 0)"
 d="M26.895,23.319 C26.668,22.794 26.153,22.455 25.581,22.455 C25.558,22.455 20.424,22.455 20.419,22.455 C19.847,22.455 19.331,22.794 19.105,23.319 L16.347,29.697 C16.195,30.048 16.189,30.437 16.329,30.792 C16.470,31.147 16.741,31.427 17.092,31.578 C17.273,31.656 17.464,31.696 17.659,31.696 C18.231,31.696 18.746,31.357 18.973,30.833 L19.475,29.672 L19.475,41.842 C19.475,42.711 20.182,43.418 21.051,43.418 C21.920,43.418 22.627,42.711 22.627,41.842 L22.627,33.492 L23.295,33.492 L23.295,41.842 C23.295,42.711 24.002,43.418 24.871,43.418 C25.740,43.418 26.447,42.711 26.447,41.842 L26.447,29.493 L27.027,30.833 C27.253,31.357 27.769,31.696 28.341,31.696 C28.536,31.696 28.727,31.656 28.908,31.578 C29.259,31.426 29.530,31.147 29.670,30.792 C29.811,30.437 29.805,30.048 29.653,29.697 L26.895,23.319 Z"/>
<path fill-rule="evenodd"  fill="rgb(253, 79, 0)"
 d="M22.820,21.931 C24.809,21.931 26.426,20.313 26.426,18.324 C26.426,16.336 24.809,14.718 22.820,14.718 C20.832,14.718 19.214,16.336 19.214,18.324 C19.214,20.313 20.832,21.931 22.820,21.931 Z"/>
</svg>