<svg 
 xmlns="http://www.w3.org/2000/svg"
 xmlns:xlink="http://www.w3.org/1999/xlink"
 width="47px" height="40px">
<path fill-rule="evenodd"  fill="rgb(253, 79, 0)"
 d="M13.603,28.998 L32.662,28.998 C34.439,28.998 31.163,21.199 31.163,21.199 C30.969,20.735 30.502,20.438 30.056,20.255 L27.042,18.867 L25.594,17.647 L23.268,19.960 L23.266,19.960 L24.270,26.672 C24.273,26.695 24.267,26.718 24.254,26.737 L23.204,28.174 C23.187,28.197 23.161,28.211 23.132,28.211 C23.104,28.211 23.077,28.197 23.060,28.174 L22.011,26.737 C21.997,26.718 21.991,26.695 21.995,26.672 L22.998,19.960 L22.997,19.960 L20.670,17.647 L19.222,18.867 L16.209,20.255 C15.763,20.438 15.325,20.716 15.102,21.199 C15.102,21.199 11.826,28.998 13.603,28.998 Z"/>
<path fill-rule="evenodd"  fill="rgb(253, 79, 0)"
 d="M23.133,18.267 C20.442,18.267 17.750,15.395 17.698,10.579 C17.664,7.237 19.256,5.237 23.133,5.237 C27.009,5.237 28.601,7.237 28.568,10.579 C28.515,15.395 25.431,18.267 23.133,18.267 ZM22.040,11.921 C23.925,9.597 18.664,8.944 19.005,11.810 C19.319,14.453 20.876,17.097 23.133,17.097 C25.283,17.097 27.238,13.916 27.261,11.809 C27.301,8.290 24.851,12.220 22.040,11.921 Z"/>
<path fill-rule="evenodd"  fill="rgb(253, 79, 0)"
 d="M44.148,34.237 L2.117,34.237 C0.948,34.237 -0.000,33.289 -0.000,32.119 L-0.000,2.117 C-0.000,0.948 0.948,-0.000 2.117,-0.000 L44.148,-0.000 C45.317,-0.000 46.265,0.948 46.265,2.117 L46.265,32.119 C46.265,33.289 45.317,34.237 44.148,34.237 ZM43.089,3.176 L3.176,3.176 L3.176,31.061 L43.089,31.061 L43.089,3.176 Z"/>
<path fill-rule="evenodd"  fill="rgb(253, 79, 0)"
 d="M-0.000,37.604 C-0.000,38.250 0.524,38.773 1.170,38.773 L12.430,38.773 L12.430,36.434 L1.170,36.434 C0.524,36.434 -0.000,36.958 -0.000,37.604 Z"/>
<path fill-rule="evenodd"  fill="rgb(253, 79, 0)"
 d="M45.096,36.434 L16.955,36.434 L16.955,38.774 L45.096,38.774 C45.742,38.774 46.265,38.250 46.265,37.604 C46.265,36.958 45.742,36.434 45.096,36.434 Z"/>
<path fill-rule="evenodd"  fill="rgb(253, 79, 0)"
 d="M14.693,35.208 C13.918,35.208 13.287,35.839 13.287,36.615 L13.287,38.592 C13.287,39.368 13.918,39.1000 14.693,39.1000 C15.469,39.1000 16.100,39.368 16.100,38.592 L16.100,36.615 C16.100,35.839 15.469,35.208 14.693,35.208 Z"/>
</svg>