<svg 
 xmlns="http://www.w3.org/2000/svg"
 xmlns:xlink="http://www.w3.org/1999/xlink"
 width="43px" height="33px">
<path fill-rule="evenodd"  fill="rgb(253, 79, 0)"
 d="M42.021,17.159 C41.394,17.791 40.544,18.147 39.657,18.147 L39.657,11.396 C40.544,11.396 41.394,11.752 42.021,12.385 C42.648,13.018 42.1000,13.876 42.1000,14.772 C42.1000,15.667 42.648,16.526 42.021,17.159 ZM38.106,29.003 C37.552,29.380 36.902,29.586 36.234,29.597 C35.804,29.597 35.377,29.514 34.978,29.354 L18.719,22.792 L18.719,29.624 C18.719,30.515 18.370,31.369 17.749,32.001 C17.128,32.634 16.285,32.992 15.403,32.1000 L13.718,32.1000 C13.084,32.995 12.465,32.811 11.930,32.467 C11.396,32.123 10.968,31.633 10.696,31.055 L6.685,22.468 C5.812,22.468 4.974,22.124 4.350,21.508 C3.725,20.892 3.364,20.055 3.343,19.173 L3.343,18.822 L-0.000,18.822 L-0.000,10.721 L3.343,10.721 L3.343,10.451 C3.343,9.556 3.695,8.697 4.322,8.064 C4.949,7.431 5.799,7.076 6.685,7.076 L17.248,7.076 C17.670,7.076 18.088,6.993 18.478,6.833 L34.978,0.270 C35.481,0.054 36.030,-0.036 36.575,0.012 C37.121,0.059 37.647,0.240 38.106,0.541 C38.557,0.848 38.927,1.263 39.183,1.747 C39.439,2.232 39.575,2.773 39.577,3.322 L39.577,26.302 C39.562,26.838 39.420,27.363 39.165,27.832 C38.909,28.302 38.546,28.703 38.106,29.003 ZM15.376,10.452 L6.685,10.452 L6.685,19.174 L15.376,19.174 L15.376,10.452 ZM15.376,22.468 L10.402,22.468 L13.691,29.624 L15.376,29.624 L15.376,22.468 ZM36.234,3.322 L19.708,9.965 C19.387,10.092 19.056,10.192 18.719,10.262 L18.719,19.173 C19.060,19.279 19.391,19.414 19.708,19.579 L36.234,26.221 L36.234,3.322 Z"/>
</svg>