<svg 
 xmlns="http://www.w3.org/2000/svg"
 xmlns:xlink="http://www.w3.org/1999/xlink"
 width="41px" height="41px">
<path fill-rule="evenodd"  opacity="0.102" fill="rgb(255, 255, 255)"
 d="M20.500,40.999 C9.163,40.999 -0.000,31.836 -0.000,20.499 C-0.000,9.163 9.163,-0.000 20.500,-0.000 C31.836,-0.000 40.1000,9.163 40.1000,20.499 C40.1000,31.836 31.836,40.999 20.500,40.999 Z"/>
<path fill-rule="evenodd"  fill="none"
 d="M10.1000,10.1000 L29.1000,10.1000 L29.1000,29.1000 L10.1000,29.1000 L10.1000,10.1000 Z"/>
<path fill-rule="evenodd"  fill="rgb(255, 255, 255)"
 d="M21.143,29.919 L19.774,29.919 C14.933,29.919 11.009,25.994 11.009,21.154 L11.009,19.784 C11.009,14.944 14.933,11.019 19.774,11.019 L21.143,11.019 C25.984,11.019 29.908,14.944 29.908,19.784 L29.908,21.154 C29.908,25.994 25.984,29.919 21.143,29.919 ZM25.258,20.245 C25.253,19.323 25.225,18.454 25.225,18.454 C25.225,16.972 24.056,15.803 22.573,15.803 C22.573,15.803 21.606,15.772 20.631,15.769 L20.509,15.769 C19.493,15.769 18.478,15.803 18.478,15.803 C16.995,15.803 15.792,17.005 15.792,18.488 C15.792,18.488 15.761,19.360 15.759,20.296 L15.759,20.418 C15.759,21.466 15.792,22.550 15.792,22.550 C15.792,24.033 16.995,25.235 18.478,25.235 C18.478,25.235 19.427,25.269 20.408,25.269 C21.456,25.269 22.573,25.235 22.573,25.235 C24.056,25.235 25.225,24.067 25.225,22.584 C25.225,22.584 25.259,21.512 25.259,20.486 L25.258,20.245 ZM22.409,24.386 C22.409,24.386 21.465,24.410 20.646,24.413 L20.426,24.414 C19.622,24.414 18.642,24.386 18.642,24.386 C17.426,24.386 16.641,23.602 16.641,22.386 C16.641,22.386 16.614,21.296 16.614,20.437 C16.614,19.632 16.641,18.619 16.641,18.619 C16.641,17.402 17.426,16.652 18.642,16.652 C18.642,16.652 19.676,16.624 20.509,16.624 C21.341,16.624 22.409,16.652 22.409,16.652 C23.625,16.652 24.376,17.402 24.376,18.619 C24.376,18.619 24.404,19.668 24.404,20.492 C24.404,21.333 24.376,22.419 24.376,22.419 C24.376,23.636 23.625,24.386 22.409,24.386 ZM20.509,18.086 C19.165,18.086 18.075,19.175 18.075,20.519 C18.075,21.863 19.165,22.952 20.509,22.952 C21.852,22.952 22.942,21.863 22.942,20.519 C22.942,19.175 21.852,18.086 20.509,18.086 ZM23.058,17.411 C22.734,17.411 22.470,17.675 22.470,18.001 C22.470,18.328 22.734,18.592 23.058,18.592 C23.383,18.592 23.646,18.328 23.646,18.001 C23.646,17.675 23.383,17.411 23.058,17.411 ZM20.509,22.102 C19.634,22.102 18.925,21.394 18.925,20.519 C18.925,19.645 19.634,18.936 20.509,18.936 C21.383,18.936 22.092,19.645 22.092,20.519 C22.092,21.394 21.383,22.102 20.509,22.102 Z"/>
</svg>