<svg 
 xmlns="http://www.w3.org/2000/svg"
 xmlns:xlink="http://www.w3.org/1999/xlink"
 width="35px" height="18px">
<path fill-rule="evenodd"  fill="rgb(253, 79, 0)"
 d="M16.392,14.469 C16.515,14.769 16.585,15.096 16.585,15.440 C16.585,16.854 15.439,17.1000 14.026,17.1000 C12.613,17.1000 11.467,16.854 11.467,15.440 C11.467,15.096 11.537,14.769 11.661,14.469 L9.563,14.469 L9.198,12.403 L3.408,12.403 C2.902,12.403 2.492,11.993 2.492,11.487 C2.492,10.981 2.902,10.570 3.408,10.570 L7.620,10.570 C8.068,10.570 8.431,10.207 8.431,9.760 C8.431,9.313 8.068,8.950 7.620,8.950 L4.569,8.950 C4.063,8.950 3.653,8.540 3.653,8.034 C3.653,7.528 4.063,7.118 4.569,7.118 L8.709,7.118 C9.157,7.118 9.519,6.755 9.519,6.307 C9.519,5.861 9.157,5.497 8.709,5.497 L0.916,5.497 C0.410,5.497 -0.000,5.087 -0.000,4.581 C-0.000,4.075 0.410,3.665 0.916,3.665 L6.634,3.665 C7.140,3.665 7.550,3.254 7.550,2.748 C7.550,2.243 7.140,1.832 6.634,1.832 L2.358,1.832 C1.851,1.832 1.441,1.422 1.441,0.916 C1.441,0.410 1.851,-0.000 2.358,-0.000 L19.929,-0.000 C20.310,-0.000 20.635,0.274 20.699,0.649 L23.048,14.469 L16.392,14.469 ZM14.536,14.469 L13.516,14.469 C13.166,14.653 12.924,15.017 12.924,15.440 C12.924,16.049 13.417,16.542 14.026,16.542 C14.635,16.542 15.128,16.049 15.128,15.440 C15.128,15.017 14.886,14.653 14.536,14.469 Z"/>
<path fill-rule="evenodd"  fill="rgb(253, 79, 0)"
 d="M33.767,13.977 C33.513,14.288 33.132,14.469 32.730,14.469 L31.616,14.469 C31.740,14.768 31.810,15.096 31.810,15.440 C31.810,16.854 30.664,17.1000 29.250,17.1000 C27.837,17.1000 26.691,16.854 26.691,15.440 C26.691,15.096 26.762,14.768 26.885,14.469 L24.328,14.469 L22.163,1.771 L29.153,1.771 L32.991,7.677 L34.043,12.864 C34.123,13.258 34.021,13.667 33.767,13.977 ZM27.871,4.134 L26.119,4.134 L26.716,7.631 L30.144,7.631 L27.871,4.134 ZM29.761,14.469 L28.741,14.469 C28.391,14.653 28.149,15.017 28.149,15.440 C28.149,16.049 28.642,16.542 29.250,16.542 C29.859,16.542 30.352,16.049 30.352,15.440 C30.352,15.017 30.111,14.653 29.761,14.469 Z"/>
</svg>