<svg 
 xmlns="http://www.w3.org/2000/svg"
 xmlns:xlink="http://www.w3.org/1999/xlink"
 width="41px" height="41px">
<path fill-rule="evenodd"  opacity="0.102" fill="rgb(255, 255, 255)"
 d="M20.500,40.999 C9.163,40.999 -0.000,31.836 -0.000,20.499 C-0.000,9.163 9.163,-0.000 20.500,-0.000 C31.836,-0.000 40.1000,9.163 40.1000,20.499 C40.1000,31.836 31.836,40.999 20.500,40.999 Z"/>
<path fill-rule="evenodd"  fill="rgb(255, 255, 255)"
 d="M20.500,29.1000 C15.253,29.1000 10.1000,25.747 10.1000,20.499 C10.1000,15.252 15.253,10.1000 20.500,10.1000 C25.747,10.1000 29.1000,15.252 29.1000,20.499 C29.1000,25.747 25.747,29.1000 20.500,29.1000 ZM25.001,17.238 C24.623,17.464 24.207,17.624 23.762,17.713 C23.406,17.334 22.897,17.097 22.337,17.097 C21.261,17.097 20.385,17.972 20.385,19.049 C20.385,19.204 20.403,19.353 20.437,19.494 C18.815,19.412 17.379,18.637 16.414,17.453 C16.247,17.743 16.151,18.080 16.151,18.436 C16.151,19.112 16.496,19.713 17.019,20.062 C16.700,20.051 16.399,19.961 16.136,19.817 L16.136,19.839 C16.136,20.785 16.808,21.576 17.702,21.754 C17.539,21.802 17.364,21.824 17.186,21.824 C17.060,21.824 16.937,21.813 16.819,21.791 C17.064,22.567 17.787,23.131 18.641,23.146 C17.973,23.669 17.130,23.980 16.218,23.980 C16.058,23.980 15.902,23.973 15.750,23.954 C16.611,24.508 17.639,24.830 18.741,24.830 C22.333,24.830 24.296,21.854 24.296,19.275 C24.296,19.190 24.296,19.104 24.293,19.022 C24.675,18.744 25.005,18.403 25.265,18.010 C24.916,18.166 24.537,18.269 24.144,18.318 C24.545,18.076 24.857,17.694 25.001,17.238 Z"/>
</svg>