<svg 
 xmlns="http://www.w3.org/2000/svg"
 xmlns:xlink="http://www.w3.org/1999/xlink"
 width="34px" height="35px">
<path fill-rule="evenodd"  fill="rgb(253, 79, 0)"
 d="M6.121,12.832 L27.879,12.832 L27.879,34.095 L33.1000,34.095 L33.1000,7.937 L16.515,-0.001 L-0.000,7.937 L-0.000,34.095 L6.121,34.095 L6.121,12.832 Z"/>
<path fill-rule="evenodd"  fill="rgb(253, 79, 0)"
 d="M12.654,29.948 L16.515,29.948 L16.515,33.279 L12.654,33.279 L12.654,29.948 Z"/>
<path fill-rule="evenodd"  fill="rgb(253, 79, 0)"
 d="M17.393,29.948 L21.254,29.948 L21.254,33.279 L17.393,33.279 L17.393,29.948 Z"/>
<path fill-rule="evenodd"  fill="rgb(253, 79, 0)"
 d="M7.916,29.948 L11.777,29.948 L11.777,33.279 L7.916,33.279 L7.916,29.948 Z"/>
<path fill-rule="evenodd"  fill="rgb(253, 79, 0)"
 d="M12.654,25.380 L16.515,25.380 L16.515,28.710 L12.654,28.710 L12.654,25.380 Z"/>
<path fill-rule="evenodd"  fill="rgb(253, 79, 0)"
 d="M7.916,25.380 L11.777,25.380 L11.777,28.710 L7.916,28.710 L7.916,25.380 Z"/>
<path fill-rule="evenodd"  fill="rgb(253, 79, 0)"
 d="M17.393,25.380 L21.254,25.380 L21.254,28.710 L17.393,28.710 L17.393,25.380 Z"/>
<path fill-rule="evenodd"  fill="rgb(253, 79, 0)"
 d="M12.654,20.812 L16.515,20.812 L16.515,24.143 L12.654,24.143 L12.654,20.812 Z"/>
<path fill-rule="evenodd"  fill="rgb(253, 79, 0)"
 d="M7.916,20.812 L11.777,20.812 L11.777,24.143 L7.916,24.143 L7.916,20.812 Z"/>
<path fill-rule="evenodd"  fill="rgb(253, 79, 0)"
 d="M22.131,29.948 L25.992,29.948 L25.992,33.279 L22.131,33.279 L22.131,29.948 Z"/>
</svg>