<svg 
 xmlns="http://www.w3.org/2000/svg"
 xmlns:xlink="http://www.w3.org/1999/xlink"
 width="39px" height="33px">
<path fill-rule="evenodd"  fill="rgb(253, 79, 0)"
 d="M38.815,24.591 C38.695,24.829 38.522,25.038 38.308,25.206 C37.806,24.086 37.047,23.084 36.084,22.273 C35.122,21.461 33.981,20.860 32.743,20.512 C31.504,20.164 30.199,20.077 28.921,20.259 C27.643,20.441 26.423,20.886 25.350,21.563 L25.350,5.500 L33.150,5.500 L38.1000,12.833 L38.1000,23.833 C38.997,24.095 38.934,24.354 38.815,24.591 ZM13.923,21.753 C12.496,20.771 10.787,20.219 9.020,20.169 C7.253,20.120 5.512,20.574 4.025,21.473 C2.539,22.372 1.377,23.674 0.692,25.206 C0.478,25.038 0.305,24.829 0.185,24.591 C0.066,24.354 0.002,24.095 -0.000,23.833 L-0.000,12.833 L21.450,12.833 L21.450,25.666 L17.012,25.666 C16.426,24.098 15.349,22.733 13.923,21.753 ZM-0.000,1.833 C-0.000,1.347 0.205,0.881 0.571,0.537 C0.937,0.193 1.433,-0.000 1.950,-0.000 L19.500,-0.000 C20.017,-0.000 20.513,0.193 20.879,0.537 C21.245,0.881 21.450,1.347 21.450,1.833 L21.450,9.166 L-0.000,9.166 L-0.000,1.833 ZM6.067,24.605 C6.868,24.102 7.811,23.833 8.775,23.833 C10.068,23.833 11.308,24.316 12.222,25.175 C13.136,26.035 13.650,27.201 13.650,28.416 C13.650,29.323 13.364,30.209 12.828,30.963 C12.293,31.717 11.531,32.304 10.641,32.651 C9.750,32.998 8.770,33.088 7.824,32.912 C6.878,32.734 6.010,32.298 5.328,31.657 C4.646,31.016 4.182,30.200 3.994,29.311 C3.806,28.421 3.902,27.500 4.271,26.662 C4.640,25.825 5.265,25.109 6.067,24.605 ZM27.517,24.605 C28.318,24.102 29.261,23.833 30.225,23.833 C31.518,23.833 32.758,24.316 33.672,25.175 C34.586,26.035 35.100,27.201 35.100,28.416 C35.100,29.323 34.814,30.209 34.278,30.963 C33.743,31.717 32.981,32.304 32.091,32.651 C31.200,32.998 30.220,33.088 29.274,32.912 C28.328,32.734 27.460,32.298 26.778,31.657 C26.096,31.016 25.632,30.200 25.444,29.311 C25.256,28.421 25.352,27.500 25.721,26.662 C26.090,25.825 26.715,25.109 27.517,24.605 Z"/>
</svg>