<svg 
 xmlns="http://www.w3.org/2000/svg"
 xmlns:xlink="http://www.w3.org/1999/xlink"
 width="38px" height="38px">
<path fill-rule="evenodd"  fill="rgb(253, 79, 0)"
 d="M32.029,25.136 C31.129,25.136 30.400,25.865 30.400,26.764 L30.400,32.082 C30.400,32.897 29.736,33.561 28.921,33.561 L18.1000,33.561 C18.101,33.561 17.371,34.290 17.371,35.189 C17.371,36.089 18.101,36.818 18.1000,36.818 L28.921,36.818 C31.532,36.818 33.657,34.693 33.657,32.082 L33.657,26.764 C33.657,25.865 32.928,25.136 32.029,25.136 Z"/>
<path fill-rule="evenodd"  fill="rgb(253, 79, 0)"
 d="M18.1000,32.476 L24.578,32.476 C25.477,32.476 26.206,33.205 26.206,34.104 L26.206,36.276 C26.206,37.175 25.477,37.904 24.578,37.904 L18.1000,37.904 C18.101,37.904 17.371,37.175 17.371,36.276 L17.371,34.104 C17.371,33.205 18.101,32.476 18.1000,32.476 Z"/>
<path fill-rule="evenodd"  fill="rgb(253, 79, 0)"
 d="M33.625,13.628 C33.380,9.925 31.749,6.487 29.032,3.948 C26.536,1.615 23.335,0.243 19.934,0.030 C19.906,0.028 19.878,0.026 19.849,0.025 C19.740,0.019 19.630,0.014 19.520,0.010 C19.485,0.008 19.449,0.007 19.413,0.006 C19.276,0.002 19.138,-0.000 19.000,-0.000 C18.862,-0.000 18.725,0.002 18.587,0.006 C18.551,0.007 18.516,0.008 18.480,0.010 C18.370,0.014 18.261,0.019 18.151,0.025 C18.122,0.026 18.094,0.028 18.065,0.030 C14.665,0.243 11.464,1.615 8.968,3.948 C8.754,4.148 8.548,4.354 8.347,4.565 C6.004,7.031 4.601,10.217 4.375,13.629 C4.316,14.526 4.995,15.302 5.893,15.361 C5.930,15.363 5.966,15.364 6.002,15.364 C6.852,15.364 7.569,14.704 7.626,13.843 C7.746,12.026 8.298,10.330 9.177,8.850 L28.823,8.850 C29.703,10.330 30.255,12.026 30.375,13.843 C30.434,14.740 31.209,15.420 32.108,15.361 C33.005,15.301 33.684,14.526 33.625,13.628 Z"/>
<path fill-rule="evenodd"  fill="rgb(253, 79, 0)"
 d="M1.628,12.107 L9.229,12.107 C10.128,12.107 10.857,12.836 10.857,13.736 L10.857,26.764 C10.857,27.664 10.128,28.393 9.229,28.393 L1.628,28.393 C0.729,28.393 -0.000,27.664 -0.000,26.764 L-0.000,13.736 C-0.000,12.836 0.729,12.107 1.628,12.107 Z"/>
<path fill-rule="evenodd"  fill="rgb(253, 79, 0)"
 d="M33.625,13.628 C33.380,9.925 31.749,6.487 29.032,3.948 C26.536,1.615 23.335,0.243 19.934,0.030 C19.906,0.028 19.878,0.026 19.849,0.025 C19.740,0.019 19.630,0.014 19.520,0.010 C19.485,0.008 19.449,0.007 19.413,0.006 C19.276,0.002 19.138,-0.000 19.000,-0.000 L19.000,8.850 L28.823,8.850 C29.703,10.330 30.255,12.026 30.375,13.843 C30.434,14.740 31.209,15.420 32.108,15.361 C33.005,15.301 33.684,14.526 33.625,13.628 Z"/>
<path fill-rule="evenodd"  fill="rgb(253, 79, 0)"
 d="M28.771,12.107 L36.372,12.107 C37.271,12.107 37.1000,12.836 37.1000,13.736 L37.1000,26.764 C37.1000,27.664 37.271,28.393 36.372,28.393 L28.771,28.393 C27.872,28.393 27.143,27.664 27.143,26.764 L27.143,13.736 C27.143,12.836 27.872,12.107 28.771,12.107 Z"/>
</svg>